<svg xmlns="http://www.w3.org/2000/svg" xmlns:xlink="http://www.w3.org/1999/xlink" width="500" zoomAndPan="magnify" viewBox="0 0 375 374.999991" height="500" preserveAspectRatio="xMidYMid meet" version="1.2"><defs><clipPath id="5495660ebe"><path d="M 7 37.5 L 167 37.5 L 167 337.5 L 7 337.5 Z M 7 37.5 "/></clipPath><clipPath id="c3bb3ac1f7"><path d="M 208 37.5 L 368 37.5 L 368 337.5 L 208 337.5 Z M 208 37.5 "/></clipPath></defs><g id="f9d2f16aa3"><g clip-rule="nonzero" clip-path="url(#5495660ebe)"><path style=" stroke:none;fill-rule:nonzero;fill:#35a1f4;fill-opacity:1;" d="M 157.367188 337.347656 L 47.566406 277.09375 C 21.375 262.71875 7.308594 235.226562 8.34375 207.273438 L 8.34375 172.65625 C 5.246094 143 19.785156 112.996094 47.566406 97.753906 L 157.367188 37.5 C 177.65625 74.46875 164.132812 120.886719 127.164062 141.183594 L 42.894531 187.425781 L 127.164062 233.671875 C 164.132812 253.960938 177.65625 300.378906 157.367188 337.347656 Z M 157.367188 337.347656 "/></g><g clip-rule="nonzero" clip-path="url(#c3bb3ac1f7)"><path style=" stroke:none;fill-rule:nonzero;fill:#004aad;fill-opacity:1;" d="M 217.632812 337.347656 L 327.433594 277.09375 C 353.625 262.71875 367.691406 235.226562 366.65625 207.273438 L 366.65625 172.65625 C 369.753906 143 355.214844 112.996094 327.433594 97.753906 L 217.632812 37.5 C 197.34375 74.46875 210.867188 120.886719 247.835938 141.183594 L 332.105469 187.425781 L 247.835938 233.671875 C 210.867188 253.960938 197.34375 300.378906 217.632812 337.347656 Z M 217.632812 337.347656 "/></g></g></svg>